# xmcd CD database file
#
# Track frame offsets:
#	150
#	13698
#	25796
#	41474
#	53908
#	68045
#	80697
#	93697
#	104383
#	117277
#	132516
#	146914
#	161250
#	174133
#	187147
#	199777
#	212875
#	227334
#	238407
#	252715
#	265279
#
# Disc length: 3752 seconds
#
# Revision: 0
# Processed by: cddbd v1.5.2PL0 Copyright (c) Steve Scherf et al.
# Submitted via: CDex 1.70beta1
#
DISCID=340ea615
DTITLE=Various Artist - The Cradle of Jazz CD6
DYEAR=1955
DGENRE=Jazz
TTITLE0=Jelly Roll Morton - Oh, Didn't He Ramble
TTITLE1=Jelly Roll Morton - Mamies Blues
TTITLE2=Jelly Roll Morton - Sidewalk Blues
TTITLE3=Sidney Bechet - Black Stick Blues
TTITLE4=Jelly Roll Morton - Steamboat Stomp
TTITLE5=Jelly Roll Morton - The Pearls
TTITLE6=Jelly Roll Morton - Smilin' The Blues Away
TTITLE7=Sidney Bechet - Chan In The Night
TTITLE8=Sidney Bechet - Characteristic Blues
TTITLE9=Jelly Roll Morton - Smoke-House Blues
TTITLE10=Jelly Roll Morton - Winin' Boy Blues
TTITLE11=Sidney Bechet - I Thought, I Heard Buddy Bolden Say
TTITLE12=Jelly Roll Morton - West End Blues
TTITLE13=Sidney Bechet - Ja-Da
TTITLE14=Sidney Bechet - High Society
TTITLE15=Sidney Bechet - Maple Leaf Rag
TTITLE16=Sidney Bechet - I've Found A New Baby
TTITLE17=Sidney Bechet - Jungle Drums
TTITLE18=Sidney Bechet - Oh, Didn't He Ramble
TTITLE19=Sidney Bechet - Polka Dot Rag
TTITLE20=Sidney Bechet - Really The Blues
EXTD=YEAR: 1955
EXTT0=
EXTT1=
EXTT2=
EXTT3=
EXTT4=
EXTT5=
EXTT6=
EXTT7=
EXTT8=
EXTT9=
EXTT10=
EXTT11=
EXTT12=
EXTT13=
EXTT14=
EXTT15=
EXTT16=
EXTT17=
EXTT18=
EXTT19=
EXTT20=
PLAYORDER=
